<svg id="Brand" xmlns="http://www.w3.org/2000/svg" width="22" height="22" viewBox="0 0 22 22">
  <g id="Iconspace_User_1_25px" data-name="Iconspace_User 1_25px">
    <path id="Path" d="M0,0H22V22H0Z" fill="none"/>
    <path id="Path-2" data-name="Path" d="M0,0H22V22H0Z" fill="none"/>
    <g id="github" transform="translate(1.759 1.988)">
      <path id="Path-3" data-name="Path" d="M9.241,0A9.24,9.24,0,0,0,6.319,18.006c.462.081.635-.2.635-.439,0-.219-.012-.947-.012-1.721-2.322.427-2.922-.566-3.107-1.086a3.36,3.36,0,0,0-.947-1.305c-.323-.173-.785-.6-.012-.612a1.849,1.849,0,0,1,1.421.947,1.975,1.975,0,0,0,2.691.762,1.944,1.944,0,0,1,.589-1.236c-2.056-.231-4.2-1.028-4.2-4.562a3.6,3.6,0,0,1,.947-2.483,3.321,3.321,0,0,1,.092-2.449s.774-.243,2.541.947a8.711,8.711,0,0,1,4.62,0c1.767-1.2,2.541-.947,2.541-.947a3.32,3.32,0,0,1,.092,2.449,3.575,3.575,0,0,1,.947,2.483c0,3.546-2.16,4.331-4.216,4.562a2.188,2.188,0,0,1,.624,1.709c0,1.236-.012,2.229-.012,2.541,0,.243.173.531.635.439A9.245,9.245,0,0,0,9.241,0Z" transform="translate(0 0)" fill="#919eab"/>
    </g>
  </g>
</svg>
