<svg id="Component_27_1" data-name="Component 27 – 1" xmlns="http://www.w3.org/2000/svg" width="30.293" height="30.294" viewBox="0 0 30.293 30.294">
  <path id="Path_473" data-name="Path 473" d="M20.621,31.54H12.168c-7.65,0-10.918-3.269-10.918-10.918V12.168C1.25,4.519,4.519,1.25,12.168,1.25h8.453c7.65,0,10.918,3.269,10.918,10.918v8.453C31.54,28.271,28.271,31.54,20.621,31.54ZM12.168,3.363c-6.495,0-8.805,2.31-8.805,8.805v8.453c0,6.495,2.31,8.805,8.805,8.805h8.453c6.495,0,8.805-2.31,8.805-8.805V12.168c0-6.495-2.31-8.805-8.805-8.805Z" transform="translate(-1.247 -1.246)" fill="#1891c9"/>
  <path id="Path_474" data-name="Path 474" d="M16.281,31.541a1.066,1.066,0,0,1-1.029-.8L8.279,2.561a1.065,1.065,0,0,1,.775-1.282,1.054,1.054,0,0,1,1.282.775L17.31,30.231a1.065,1.065,0,0,1-.775,1.282A1.552,1.552,0,0,1,16.281,31.541Z" transform="translate(1.614 -1.247)" fill="#1891c9"/>
  <path id="Path_475" data-name="Path 475" d="M2.307,17.5a1.057,1.057,0,0,1-.3-2.071l13.426-3.917a1.057,1.057,0,1,1,.592,2.029L2.6,17.458A1.073,1.073,0,0,1,2.307,17.5Z" transform="translate(-1.248 2.931)" fill="#1891c9"/>
</svg>
