<svg id="Component_28_1" data-name="Component 28 – 1" xmlns="http://www.w3.org/2000/svg" width="30.516" height="27.01" viewBox="0 0 30.516 27.01">
  <path id="Path_476" data-name="Path 476" d="M16.508,29.008h-7.1c-5.181,0-8.161-2.981-8.161-8.161V10.911c0-5.181,2.981-8.161,8.161-8.161H23.6c5.181,0,8.161,2.981,8.161,8.161v4.258a1.065,1.065,0,1,1-2.129,0V10.911c0-4.059-1.973-6.032-6.032-6.032H9.411c-4.059,0-6.032,1.973-6.032,6.032v9.936c0,4.059,1.973,6.032,6.032,6.032h7.1a1.065,1.065,0,1,1,0,2.129Z" transform="translate(-1.25 -2.75)" fill="#1891c9"/>
  <path id="Path_477" data-name="Path 477" d="M14.412,14.81a5.276,5.276,0,0,1-3.321-1.121L6.648,10.14a1.061,1.061,0,0,1-.17-1.49,1.075,1.075,0,0,1,1.49-.17l4.443,3.548a3.387,3.387,0,0,0,3.988,0L20.842,8.48a1.061,1.061,0,1,1,1.32,1.661l-4.443,3.548A5.209,5.209,0,0,1,14.412,14.81Z" transform="translate(0.846 -0.447)" fill="#1891c9"/>
  <path id="Path_478" data-name="Path 478" d="M16.406,25.273a2,2,0,0,1-1.419-.568,2.019,2.019,0,0,1-.539-1.746l.27-1.916a2.811,2.811,0,0,1,.724-1.448l5.024-5.025a3.381,3.381,0,0,1,2.072-1.107,3.213,3.213,0,0,1,2.583,1.107,3.2,3.2,0,0,1,1.107,2.583,3.492,3.492,0,0,1-1.107,2.072L20.1,24.251a2.812,2.812,0,0,1-1.448.724l-1.916.27A2.532,2.532,0,0,1,16.406,25.273Zm6.373-9.694h-.043a1.49,1.49,0,0,0-.766.5L16.946,21.1a.54.54,0,0,0-.114.241l-.255,1.774,1.774-.255a.788.788,0,0,0,.241-.128l5.025-5.025a1.547,1.547,0,0,0,.5-.766c.028-.284-.256-.625-.5-.866A1.448,1.448,0,0,0,22.779,15.578Z" transform="translate(4.274 1.737)" fill="#1891c9"/>
  <path id="Path_479" data-name="Path 479" d="M22.165,19.813a.915.915,0,0,1-.284-.043,5.645,5.645,0,0,1-3.889-3.889,1.078,1.078,0,0,1,.738-1.32,1.057,1.057,0,0,1,1.306.738,3.5,3.5,0,0,0,2.413,2.413,1.072,1.072,0,0,1,.738,1.32A1.061,1.061,0,0,1,22.165,19.813Z" transform="translate(5.754 2.187)" fill="#1891c9"/>
</svg>
