<svg id="Component_29_1" data-name="Component 29 – 1" xmlns="http://www.w3.org/2000/svg" width="26.454" height="26.503" viewBox="0 0 26.454 26.503">
  <path id="Path_481" data-name="Path 481" d="M21.22,27.753a11.278,11.278,0,0,1-4.376-.974,23.144,23.144,0,0,1-4.425-2.539A38.478,38.478,0,0,1,8.264,20.7,36.828,36.828,0,0,1,4.726,16.56a23,23,0,0,1-2.515-4.388,11.414,11.414,0,0,1-.962-4.4,7.428,7.428,0,0,1,.505-2.724A6.584,6.584,0,0,1,3.407,2.655,4.477,4.477,0,0,1,6.6,1.25a3.333,3.333,0,0,1,1.393.308,2.821,2.821,0,0,1,1.183,1l2.86,4.031a4.775,4.775,0,0,1,.592,1.048,2.769,2.769,0,0,1,.247,1.1,2.615,2.615,0,0,1-.394,1.356,4.931,4.931,0,0,1-.826,1.048l-.838.875a.6.6,0,0,0,.037.086,9.48,9.48,0,0,0,1.011,1.368c.6.69,1.171,1.319,1.738,1.9.727.715,1.331,1.282,1.9,1.75a8.029,8.029,0,0,0,1.43,1.023l-.025.062.9-.888a4.6,4.6,0,0,1,1.109-.851,2.6,2.6,0,0,1,2.4-.136,5.612,5.612,0,0,1,1.035.579l4.093,2.909a2.649,2.649,0,0,1,.986,1.171,3.567,3.567,0,0,1,.271,1.331,4.111,4.111,0,0,1-.394,1.738,5.741,5.741,0,0,1-.986,1.479,6.322,6.322,0,0,1-2.354,1.689A7.278,7.278,0,0,1,21.22,27.753ZM6.6,3.1a2.7,2.7,0,0,0-1.911.888A4.729,4.729,0,0,0,3.481,5.725,5.393,5.393,0,0,0,3.1,7.771a9.5,9.5,0,0,0,.814,3.673A20.577,20.577,0,0,0,6.23,15.463a34.1,34.1,0,0,0,3.341,3.92A34.709,34.709,0,0,0,13.5,22.736a20.029,20.029,0,0,0,4.056,2.33,7.352,7.352,0,0,0,5.707.431,4.551,4.551,0,0,0,1.689-1.22,4,4,0,0,0,.69-1.035,2.184,2.184,0,0,0,.222-.949,1.472,1.472,0,0,0-.136-.616.933.933,0,0,0-.345-.37L21.294,18.4a3.534,3.534,0,0,0-.678-.382.648.648,0,0,0-.8.037,2.81,2.81,0,0,0-.715.555l-.937.925a1.757,1.757,0,0,1-1.787.37l-.333-.148a10.508,10.508,0,0,1-1.75-1.245c-.592-.505-1.233-1.1-2.009-1.861-.6-.616-1.208-1.27-1.837-2a10.518,10.518,0,0,1-1.257-1.738l-.148-.37a2.3,2.3,0,0,1-.1-.616,1.582,1.582,0,0,1,.468-1.146l.925-.962a3.57,3.57,0,0,0,.555-.69.791.791,0,0,0,.136-.419,1.146,1.146,0,0,0-.1-.394,3.536,3.536,0,0,0-.394-.653L7.672,3.617a1.136,1.136,0,0,0-.456-.382A1.544,1.544,0,0,0,6.6,3.1ZM16.905,18.212l-.2.838.333-.863A.152.152,0,0,0,16.905,18.212Z" transform="translate(-1.25 -1.25)" fill="#1891c9"/>
  <path id="Path_482" data-name="Path 482" d="M21.291,11.016a.931.931,0,0,1-.925-.925V5.1H15.375a.925.925,0,1,1,0-1.849h5.917a.931.931,0,0,1,.925.925v5.917A.931.931,0,0,1,21.291,11.016Z" transform="translate(1.821 -0.785)" fill="#1891c9"/>
</svg>
