<svg id="iconspace_Home_1_25px" data-name="iconspace_Home 1_25px" xmlns="http://www.w3.org/2000/svg" width="24" height="24" viewBox="0 0 24 24">
  <path id="Path" d="M0,0H24V24H0Z" fill="none"/>
  <path id="Path-2" data-name="Path" d="M0,0H24V24H0Z" fill="none"/>
  <path id="Combined_Shape" data-name="Combined Shape" d="M13.339,20.16a1.768,1.768,0,0,0,.1-.593V16.4a3.114,3.114,0,0,0-3.135-2.964H9.854A3.114,3.114,0,0,0,6.72,16.4v3.162a1.768,1.768,0,0,0,.1.593H5.336A2.964,2.964,0,0,1,2.372,17.2V8.126L.983,9.341A.593.593,0,0,1,.2,8.448L9.69.147a.592.592,0,0,1,.781,0l9.487,8.3a.593.593,0,1,1-.781.893L17.788,8.126V17.2a2.964,2.964,0,0,1-2.964,2.964Zm-4.986,0a.672.672,0,0,1-.672-.671V16.416A2.016,2.016,0,0,1,9.7,14.4h.768a2.015,2.015,0,0,1,2.016,2.016v3.072a.671.671,0,0,1-.671.671Z" transform="translate(1.92 1.92)" fill="#5a7184"/>
</svg>
