<svg id="Logo" xmlns="http://www.w3.org/2000/svg" width="52.141" height="32.538" viewBox="0 0 52.141 32.538">
  <path id="Fill_1" data-name="Fill 1" d="M19.961,16.269a16.3,16.3,0,0,1,6.11-12.756A15.907,15.907,0,0,0,16.09,0,16.18,16.18,0,0,0,0,16.269,16.18,16.18,0,0,0,16.09,32.538a15.907,15.907,0,0,0,9.981-3.513,16.3,16.3,0,0,1-6.11-12.756" transform="translate(0 0)" fill="#eb001b"/>
  <path id="Fill_4" data-name="Fill 4" d="M0,12.756A16.3,16.3,0,0,0,6.11,25.512a16.3,16.3,0,0,0,6.11-12.756A16.3,16.3,0,0,0,6.11,0,16.3,16.3,0,0,0,0,12.756" transform="translate(19.961 3.513)" fill="#ff5e00"/>
  <path id="Fill_8" data-name="Fill 8" d="M9.98,0A15.906,15.906,0,0,0,0,3.513,16.3,16.3,0,0,1,6.11,16.269,16.3,16.3,0,0,1,0,29.025a15.906,15.906,0,0,0,9.98,3.513,16.18,16.18,0,0,0,16.09-16.269A16.18,16.18,0,0,0,9.98,0" transform="translate(26.071 0)" fill="#f79e1c"/>
</svg>
