<svg id="Logo_Payment_Small_Visa" data-name="Logo / Payment / Small / Visa" xmlns="http://www.w3.org/2000/svg" width="65.589" height="21.824" viewBox="0 0 65.589 21.824">
  <g id="Logo">
    <path id="Path" d="M5.352,21.084H0L3.345,0H8.7Z" transform="translate(23.082 0.377)" fill="#2566af"/>
    <path id="Path-2" data-name="Path" d="M18.579,0l-5.1,14.5-.6-3.123h0L11.073,1.9A2.312,2.312,0,0,0,8.534,0H.1L0,.357a19.731,19.731,0,0,1,5.6,2.41l4.65,18.317h5.576L24.339,0Z" transform="translate(0 0.377)" fill="#2566af"/>
    <path id="Path-3" data-name="Path" d="M14.125,21.084H19.04L14.755,0h-4.3A2.467,2.467,0,0,0,7.982,1.571L0,21.084H5.579l1.116-3.132h6.8Z" transform="translate(46.55 0.377)" fill="#2566af"/>
    <path id="Path-4" data-name="Path" d="M0,7.89,2.812,0,4.394,7.89Z" transform="translate(54.786 6.112)" fill="#fff"/>
    <path id="Path-5" data-name="Path" d="M15.237,5.447,16,.919A15.114,15.114,0,0,0,11.187,0C8.531,0,2.224,1.191,2.224,6.98c0,5.447,7.4,5.515,7.4,8.376S2.987,17.7.8,15.9L0,20.634a14.685,14.685,0,0,0,6.041,1.191c3.652,0,9.162-1.94,9.162-7.218,0-5.482-7.469-5.992-7.469-8.376s5.213-2.078,7.5-.783Z" transform="translate(31.731)" fill="#2566af"/>
    <path id="Path-6" data-name="Path" d="M12.874,11.38,11.073,1.9A2.312,2.312,0,0,0,8.534,0H.1L0,.357A20.507,20.507,0,0,1,7.943,4.448,16.466,16.466,0,0,1,12.874,11.38Z" transform="translate(0 0.376)" fill="#e6a540"/>
  </g>
</svg>
