<svg xmlns="http://www.w3.org/2000/svg" width="43.838" height="45.179" viewBox="0 0 43.838 45.179">
  <g id="symbols" transform="translate(0 0)">
    <g id="Group_15870" data-name="Group 15870" transform="translate(0 26.128)">
      <g id="Group_15869" data-name="Group 15869">
        <path id="Path_19218" data-name="Path 19218" d="M8.068,23.724a2.26,2.26,0,0,0,1.386-2.317c0-1.166-.709-2.9-3.483-2.9H.475V29.819h4.79c2.317,0,2.931-.394,3.576-1.028a3.285,3.285,0,0,0,.974-2.327A2.634,2.634,0,0,0,8.068,23.724Zm-5.323-3.26H5.456c1.07,0,1.732.282,1.732,1.211,0,.9-.738,1.262-1.672,1.262H2.745Zm2.9,7.4h-2.9V24.84H5.754c.853,0,1.7.383,1.7,1.371C7.452,27.358,6.79,27.865,5.641,27.865Z" transform="translate(-0.475 -18.506)" fill="#3b50e3"/>
      </g>
    </g>
    <g id="Group_15872" data-name="Group 15872" transform="translate(0.001 39.232)">
      <g id="Group_15871" data-name="Group 15871">
        <path id="Path_19219" data-name="Path 19219" d="M.476,27.788v1.028H2.227v4.768H3.434V28.816H5.189V27.788Z" transform="translate(-0.476 -27.788)" fill="#3b50e3"/>
      </g>
    </g>
    <g id="Group_15874" data-name="Group 15874" transform="translate(33.835 26.126)">
      <g id="Group_15873" data-name="Group 15873">
        <path id="Path_19220" data-name="Path 19220" d="M29.559,23.139,34.176,18.5H31.121L26.8,23.1V18.5H24.44v11.31H26.8V25.988l1.1-1.135,3.5,4.963h3.041Z" transform="translate(-24.44 -18.505)" fill="#3b50e3"/>
      </g>
    </g>
    <g id="Group_15876" data-name="Group 15876" transform="translate(10.027 26.126)">
      <g id="Group_15875" data-name="Group 15875">
        <path id="Path_19221" data-name="Path 19221" d="M14.331,18.5H11.606L7.577,29.817h2.488l.786-2.33h4.175l.726,2.328h2.567ZM11.481,25.53l1.45-4.473h.032l1.4,4.473Z" transform="translate(-7.577 -18.505)" fill="#3b50e3"/>
      </g>
    </g>
    <g id="Group_15878" data-name="Group 15878" transform="translate(11.935 0)">
      <g id="Group_15877" data-name="Group 15877">
        <path id="Path_19222" data-name="Path 19222" d="M24.318,3.96a14.188,14.188,0,0,0-2.407-2.294A11.1,11.1,0,0,0,20.439.727,9,9,0,0,0,18.7,0a8.471,8.471,0,0,0,.27,1.869,10.748,10.748,0,0,0,.521,1.619c-.5.147-1.107.353-1.79.618-.442.2-.926.376-1.415.64a14.9,14.9,0,0,0-1.508.847c-.518.292-1,.707-1.508,1.066a15.564,15.564,0,0,0-1.379,1.317,9.793,9.793,0,0,0-1.161,1.5c-.162.264-.35.508-.486.778s-.254.546-.376.812a7.65,7.65,0,0,0-.545,1.571,6.376,6.376,0,0,0-.278,1.441,9.362,9.362,0,0,0-.11,1.216c.011.361.02.675.028.935.016.512.02.8.02.8s.055-.289.148-.793c.047-.25.1-.551.171-.9a9.051,9.051,0,0,1,.356-1.118,5.781,5.781,0,0,1,.541-1.252,6.871,6.871,0,0,1,.784-1.272c.154-.2.312-.411.469-.618s.377-.376.559-.565a7.937,7.937,0,0,1,1.23-1.021,13.394,13.394,0,0,1,1.354-.82c.5-.2.935-.448,1.423-.592a11.441,11.441,0,0,1,1.374-.414c.436-.127.875-.184,1.258-.265.246-.035.472-.065.689-.092-.025.065-.052.127-.075.193a11.593,11.593,0,0,0-.518,1.93c-.055.343-.1.69-.136,1.045A7.838,7.838,0,0,0,18.6,11.6a8.308,8.308,0,0,0,1.021-.474c.306-.179.607-.366.894-.558A11.481,11.481,0,0,0,22.057,9.3,14.5,14.5,0,0,0,24.42,6.294l.083-.138A1.9,1.9,0,0,0,24.318,3.96Z" transform="translate(-8.929)" fill="#3b50e3"/>
      </g>
    </g>
    <g id="Group_15880" data-name="Group 15880" transform="translate(5.436 39.231)">
      <g id="Group_15879" data-name="Group 15879">
        <path id="Path_19223" data-name="Path 19223" d="M8.918,32.274c0-1.081-.26-1.259-.736-1.468a1.383,1.383,0,0,0,.9-1.382,1.63,1.63,0,0,0-1.823-1.636H4.325V33.58H5.514V31.314H6.763c.9,0,.946.308.946,1.1a3.867,3.867,0,0,0,.127,1.169h1.34v-.151C8.918,33.331,8.918,33.12,8.918,32.274ZM6.928,30.341H5.512V28.788H7.02c.709,0,.847.449.847.758C7.866,30.117,7.561,30.341,6.928,30.341Z" transform="translate(-4.325 -27.787)" fill="#3b50e3"/>
      </g>
    </g>
    <g id="Group_15882" data-name="Group 15882" transform="translate(28.158 39.232)">
      <g id="Group_15881" data-name="Group 15881">
        <path id="Path_19224" data-name="Path 19224" d="M24.542,28.816V27.788H20.419v5.8H21.63V31.148h2.55V30.123H21.63V28.816Z" transform="translate(-20.419 -27.788)" fill="#3b50e3"/>
      </g>
    </g>
    <g id="Group_15884" data-name="Group 15884" transform="translate(33.094 39.235)">
      <g id="Group_15883" data-name="Group 15883">
        <path id="Path_19225" data-name="Path 19225" d="M25.1,32.555v-1.5h2.824V30.033H25.1V28.816h3.076V27.79H23.915v5.793h4.4V32.555Z" transform="translate(-23.915 -27.79)" fill="#3b50e3"/>
      </g>
    </g>
    <g id="Group_15886" data-name="Group 15886" transform="translate(22.477 39.077)">
      <g id="Group_15885" data-name="Group 15885">
        <path id="Path_19226" data-name="Path 19226" d="M19.637,30.325l-1.409-.347c-.243-.058-.616-.155-.616-.607,0-.524.552-.692,1.009-.692,1.059,0,1.156.611,1.189.87h1.158c-.008-.71-.483-1.871-2.259-1.871-1.881,0-2.226,1.137-2.226,1.782,0,1.276.9,1.489,1.84,1.7l.62.147c.611.148,1.049.267,1.049.721,0,.606-.64.747-1.209.747-1.059,0-1.221-.613-1.23-.936H16.395c0,.721.36,1.937,2.475,1.937.505,0,2.283-.158,2.283-1.9C21.152,30.843,20.426,30.517,19.637,30.325Z" transform="translate(-16.395 -27.678)" fill="#3b50e3"/>
      </g>
    </g>
    <g id="Group_15888" data-name="Group 15888" transform="translate(38.481 39.231)">
      <g id="Group_15887" data-name="Group 15887">
        <path id="Path_19227" data-name="Path 19227" d="M32.321,32.274c0-1.081-.263-1.259-.736-1.468a1.388,1.388,0,0,0,.9-1.382,1.633,1.633,0,0,0-1.826-1.636H27.731V33.58H28.92V31.314h1.249c.894,0,.946.308.946,1.1a3.811,3.811,0,0,0,.128,1.169h1.336v-.151C32.321,33.331,32.321,33.12,32.321,32.274Zm-1.985-1.933H28.918V28.788h1.505c.712,0,.85.449.85.758C31.273,30.117,30.967,30.341,30.336,30.341Z" transform="translate(-27.731 -27.787)" fill="#3b50e3"/>
      </g>
    </g>
    <g id="Group_15890" data-name="Group 15890" transform="translate(22.173 26.13)">
      <g id="Group_15889" data-name="Group 15889">
        <path id="Path_19228" data-name="Path 19228" d="M23.19,18.508v7.875h-.03l-4.491-7.875H16.18V29.82h2.205l0-8.064h.03l4.617,8.066H25.4V18.508Z" transform="translate(-16.18 -18.508)" fill="#3b50e3"/>
      </g>
    </g>
    <g id="Group_15892" data-name="Group 15892" transform="translate(10.652 39.232)">
      <g id="Group_15891" data-name="Group 15891">
        <path id="Path_19229" data-name="Path 19229" d="M11.485,27.788h-1.4L8.02,33.581H9.3l.4-1.2h2.138l.373,1.2h1.316Zm-1.461,3.6.744-2.29h.011l.723,2.29Z" transform="translate(-8.02 -27.788)" fill="#3b50e3"/>
      </g>
    </g>
    <g id="Group_15894" data-name="Group 15894" transform="translate(16.881 39.232)">
      <g id="Group_15893" data-name="Group 15893">
        <path id="Path_19230" data-name="Path 19230" d="M16.024,27.788V31.82h-.014l-2.3-4.032H12.432v5.793H13.56V29.448h.018l2.363,4.132h1.213V27.788Z" transform="translate(-12.432 -27.788)" fill="#3b50e3"/>
      </g>
    </g>
    <g id="Group_15896" data-name="Group 15896" transform="translate(14.859 7.189)">
      <g id="Group_15895" data-name="Group 15895">
        <path id="Path_19231" data-name="Path 19231" d="M26.47,5.894c-.027-.511-.049-.8-.049-.8s-.041.289-.127.8c-.041.25-.088.553-.143.9a9.032,9.032,0,0,1-.323,1.128,5.556,5.556,0,0,1-.5,1.268,6.782,6.782,0,0,1-.744,1.295c-.147.208-.3.419-.448.634s-.366.385-.548.58a7.79,7.79,0,0,1-1.2,1.056,12.913,12.913,0,0,1-1.329.86c-.488.213-.919.476-1.4.633A10.915,10.915,0,0,1,18.3,14.7c-.431.141-.865.21-1.247.3-.244.044-.472.08-.686.113.02-.066.047-.128.069-.195a11.854,11.854,0,0,0,.46-1.946c.044-.344.076-.693.1-1.049a7.947,7.947,0,0,0-.023-1.124,7.876,7.876,0,0,0-1.007.5c-.3.188-.593.383-.877.583a11.531,11.531,0,0,0-1.5,1.317,14.487,14.487,0,0,0-2.272,3.076l-.08.138a1.9,1.9,0,0,0,.251,2.19,14.33,14.33,0,0,0,2.474,2.221,10.652,10.652,0,0,0,1.5.894,8.614,8.614,0,0,0,1.762.676,9.1,9.1,0,0,0-.325-1.858,10.7,10.7,0,0,0-.57-1.6c.5-.162,1.094-.385,1.77-.671.435-.209.913-.4,1.395-.682a13.9,13.9,0,0,0,1.475-.891c.508-.308.98-.737,1.478-1.111a15.788,15.788,0,0,0,1.34-1.357A9.788,9.788,0,0,0,24.9,12.7c.155-.27.332-.52.462-.793s.237-.553.35-.823a7.757,7.757,0,0,0,.5-1.587,6.425,6.425,0,0,0,.234-1.447,8.967,8.967,0,0,0,.076-1.218C26.5,6.469,26.484,6.154,26.47,5.894Z" transform="translate(-11 -5.092)" fill="#3b50e3"/>
      </g>
    </g>
  </g>
</svg>
