<svg xmlns="http://www.w3.org/2000/svg" width="32" height="32" viewBox="0 0 32 32">
  <g id="vuesax_bulk_award" data-name="vuesax/bulk/award" transform="translate(-428 -188)">
    <g id="award" transform="translate(428 188)">
      <path id="Vector" d="M18.467,3.9,18.28,3.79,16.427,2.723,12.6.51a4.442,4.442,0,0,0-4.133,0L4.64,2.723,2.787,3.8l-.24.133C.16,5.537,0,5.83,0,8.4V14.55c0,2.573.16,2.867,2.6,4.507l5.867,3.387a4.1,4.1,0,0,0,2.067.507,4.129,4.129,0,0,0,2.067-.507l5.92-3.427c2.387-1.6,2.547-1.893,2.547-4.467V8.4C21.067,5.83,20.907,5.537,18.467,3.9Z" transform="translate(5.467 6.383)" fill="#131b3c" opacity="0.4"/>
      <path id="Vector-2" data-name="Vector" d="M0,7.52,1.853,6.44,5.507,4.333l.173-.107a4.442,4.442,0,0,1,4.133,0l.173.107L13.64,6.44l1.853,1.067V4.653c0-3-1.653-4.653-4.653-4.653H4.64C1.64,0,0,1.653,0,4.653Z" transform="translate(8.253 2.667)" fill="#131b3c"/>
      <path id="Vector-3" data-name="Vector" d="M7.854,3.83,7.027,4.843a1,1,0,0,0-.213.64l.08,1.307a.857.857,0,0,1-1.267.92L4.414,7.23a1.227,1.227,0,0,0-.693,0l-1.213.48a.857.857,0,0,1-1.267-.92l.08-1.307a1,1,0,0,0-.213-.64L.281,3.83a.859.859,0,0,1,.48-1.493l1.267-.32A1.058,1.058,0,0,0,2.574,1.6L3.281.51a.862.862,0,0,1,1.573,0L5.561,1.6a1.058,1.058,0,0,0,.547.413l1.267.32A.859.859,0,0,1,7.854,3.83Z" transform="translate(11.933 13.957)" fill="#131b3c"/>
      <path id="Vector-4" data-name="Vector" d="M0,0H32V32H0Z" fill="none" opacity="0"/>
    </g>
  </g>
</svg>
