<svg xmlns="http://www.w3.org/2000/svg" width="32.455" height="32.455" viewBox="0 0 32.455 32.455">
  <g id="vuesax_bulk_star" data-name="vuesax/bulk/star" transform="translate(-108 -188)">
    <g id="star" transform="translate(108 188)">
      <path id="Vector" d="M5.112,18.932a2.527,2.527,0,0,0-.6-2.083L1.231,13.564A3.13,3.13,0,0,1,.1,10.494,3.13,3.13,0,0,1,2.8,8.655l4.219-.7a2.6,2.6,0,0,0,1.636-1.2l2.326-4.665C11.657.744,12.577,0,13.578,0s1.92.744,2.6,2.083L18.5,6.748a2.439,2.439,0,0,0,.933.92L4.869,22.232a.275.275,0,0,1-.46-.257Z" transform="translate(2.65 2.705)" fill="#959ead" opacity="0.4"/>
      <path id="Vector-2" data-name="Vector" d="M18.459,8.464a2.451,2.451,0,0,0-.6,2.083l.933,4.07c.392,1.69.149,2.962-.69,3.57a2.027,2.027,0,0,1-1.217.365,4.858,4.858,0,0,1-2.394-.784l-3.962-2.353a2.493,2.493,0,0,0-2.272,0L4.3,17.767c-1.5.879-2.786,1.028-3.611.419A1.991,1.991,0,0,1,0,17.24L16.444.8A2.683,2.683,0,0,1,18.8.039l1.366.23a3.13,3.13,0,0,1,2.7,1.839,3.13,3.13,0,0,1-1.136,3.07Z" transform="translate(6.829 11.091)" fill="#959ead"/>
      <path id="Vector-3" data-name="Vector" d="M0,0H32.455V32.455H0Z" fill="none" opacity="0"/>
    </g>
  </g>
</svg>
