<svg xmlns="http://www.w3.org/2000/svg" width="32" height="32" viewBox="0 0 32 32">
  <g id="vuesax_bulk_briefcase" data-name="vuesax/bulk/briefcase" transform="translate(-108 -188)">
    <g id="briefcase" transform="translate(108 188)">
      <path id="Vector" d="M25.358,7.071C24.229,5.8,22.342,5.158,19.605,5.158h-.319V5.1c0-2.28,0-5.1-5-5.1H12.272c-5,0-5,2.837-5,5.1v.068H6.958c-2.75,0-4.623.638-5.753,1.914A6.275,6.275,0,0,0,.063,11.957l.013.1.133,1.425a.291.291,0,0,0,.066.054c.438.3.89.6,1.368.869.186.122.385.231.585.339a22.481,22.481,0,0,0,7.307,2.552c.12,1.276.664,2.769,3.574,2.769s3.481-1.479,3.574-2.8a22.055,22.055,0,0,0,7.692-2.823c.08-.041.133-.081.2-.122a16.93,16.93,0,0,0,1.74-1.154.162.162,0,0,0,.066-.068l.053-.489.066-.638c.013-.081.013-.149.027-.244A6.114,6.114,0,0,0,25.358,7.071Zm-10.628,9.3c0,1.439,0,1.656-1.634,1.656s-1.634-.258-1.634-1.642v-1.71H14.73ZM9.176,5.158V5.1c0-2.307,0-3.162,3.1-3.162h2.019c3.1,0,3.1.869,3.1,3.162v.068H9.176Z" transform="translate(2.718 2.402)" fill="#131b3c"/>
      <path id="Vector-2" data-name="Vector" d="M24.358,1.222l-.2.122a22.317,22.317,0,0,1-7.69,2.823c-.106,1.3-.664,2.8-3.573,2.8S9.43,5.483,9.324,4.194a21.854,21.854,0,0,1-7.3-2.552c-.2-.109-.4-.217-.584-.339C.956,1.032.5.733.066.434A.291.291,0,0,1,0,.38L.81,9.216c.279,2.7,1.368,5.483,7.212,5.483h10.12c5.844,0,6.933-2.782,7.212-5.5L26.191,0a.162.162,0,0,1-.066.068A16.508,16.508,0,0,1,24.358,1.222Z" transform="translate(2.932 14.899)" fill="#131b3c" opacity="0.4"/>
      <path id="Vector-3" data-name="Vector" d="M0,0H32V32H0Z" fill="none" opacity="0"/>
    </g>
  </g>
</svg>
